# xmcd
#
# Track frame offsets: 
#        150
#        18890
#        38037
#        50277
#        64232
#        75436
#        89866
#        103738
#        115828
#        133255
#        145145
#        165477
#        182745
#        197092
#        215348
#
# Disc length: 3019 seconds
#
# Revision: 0
# Processed by: cddbd v1.5.1PL0 Copyright (c) Steve Scherf et al.
# Submitted via: ExactAudioCopy v0.95b2
#
DISCID=cf0bc90f
DTITLE=Various Artist - Texas Fed, Texas Bred - Redefining Country Music, Vol
DTITLE=1
DYEAR=2005
DGENRE=Texas Country
TTITLE0=Radney Foster and Pat Green - Texas In 1880
TTITLE1=Robert Earl Keen - Are You Sure Hank Done It This Way
TTITLE2=Roger Creager and Kevin Fowler - Shreveport To New Orleans
TTITLE3=Guy Clark - Good Hearted Woman
TTITLE4=Bruce Robison and Kelly Willis - Pack Up Your Sorrows
TTITLE5=Rodney Crowell - Ballad Of A Teenage Queen
TTITLE6=Jim Lauderdale - What's On My Mind
TTITLE7=Willie Nelson - You Are My Flower
TTITLE8=Charlie Robison - Big City Blues
TTITLE9=Junior Brown - Nashville Rebel]
TTITLE10=Radney Foster and Roger Creager - Luckenbach, Texas (Back To 
TTITLE10=The Basics Of Love)
TTITLE11=Chris Knight - The Border
TTITLE12=Deryl Dodd - Let Me Be
TTITLE13=Roger Creager - The Everclear Song
TTITLE14=Rev. Horton Heat - Get Rhythm
EXTD=
EXTT0=
EXTT1=
EXTT2=
EXTT3=
EXTT4=
EXTT5=
EXTT6=
EXTT7=
EXTT8=
EXTT9=
EXTT10=
EXTT11=
EXTT12=
EXTT13=
EXTT14=
PLAYORDER=
